<svg xmlns="http://www.w3.org/2000/svg" viewBox="0 0 71.11 60.26"><defs><style>.cls-1{fill:#fff;}</style></defs><g id="Layer_2" data-name="Layer 2"><g id="Layer_1-2" data-name="Layer 1"><path class="cls-1" d="M69.92,43c-5.13-8.16-10.1-16.42-15.28-24.55-2.27-3.55-4-7.5-7.36-10.93-2,4-4,7.8-6,11.59l1.91,6.82a6.54,6.54,0,0,1-.65,5.83l-.06.09a89,89,0,0,0,8.95-.06c4.76-.39,8,1.19,9.84,5.61.56,1.32,2.38,2.46,1.55,3.93s-2.72.76-4.15.77q-25.68.3-51.36.52a23.92,23.92,0,0,0-4,.16A4,4,0,0,0,0,46.6c0,2.23,2.28,1.18,3.56,1.29,2.31.2,4.82-.28,5.38,3,.18,1.11.21,2.52,1.76,2.61,1.75.09,2.1-1.36,2.42-2.66C13.57,49,14.5,47.94,16.56,48s2.47,1.29,2.75,2.88c.41,2.35,1.65,3.14,3.87,2,1.87-1.6,3.62-2.59,5.53-.08-3.79-2-3.85-1.72-4.7,2.87-1.39,2-4.53,1.52-5.53,4.64,10.71-5.2,21.62-5,32.7-1.56-1.6-2.15-4.37-2.45-5-5-1.08-4.13-2.24-1-3.38-.09a4,4,0,0,1-2.62-.19h.05a1.82,1.82,0,0,0,1.8-.79c.81-1.88.23-4.8,2.79-5.39,3-.69,2.55,2.27,3.35,3.91s2.3,1.62,2.91.06c2.05-5.28,3.88-6.49,6.09-.12.49,1.39,2.26,1.8,2.5.38.88-5.39,4.75-4.68,8.35-4.53C72.07,47.18,71.5,45.49,69.92,43Z"/><path class="cls-1" d="M21.21,6.87q-1.34,2.42-2.63,4.77l1.62-.4Z"/><path class="cls-1" d="M4.21,40.31A3.24,3.24,0,0,0,8,40.18a11.21,11.21,0,0,0,2.81-4c1.33-3.51,3.82-4.76,7.35-4.48l6.62.16L23,31.32l-1.65-.46L9.75,27.66C7.88,31,6.05,34.37,4.22,37.71,3.79,38.5,3,39.6,4.21,40.31Z"/><path class="cls-1" d="M9.84,22.5l26.47,7.32a1.78,1.78,0,0,0,2.18-2.34L31.17,1.33a1.85,1.85,0,0,0-3.58.15l-3,12.77a2.11,2.11,0,0,1-1.4,1.4L9.84,18.92C8,19.23,8,22,9.84,22.5Z"/></g></g></svg>