<svg xmlns="http://www.w3.org/2000/svg" viewBox="0 0 56.71 56.71"><defs><style>.cls-1{fill:none;stroke:#000;stroke-miterlimit:10;stroke-width:4px;fill-rule:evenodd;}</style></defs><g id="Layer_2" data-name="Layer 2"><g id="Layer_1-2" data-name="Layer 1"><path class="cls-1" d="M28.36,2A26.36,26.36,0,1,0,54.71,28.36,26.36,26.36,0,0,0,28.36,2ZM25.19,12.09a3.17,3.17,0,0,1,3.17-3.16h0a3.16,3.16,0,0,1,0,6.32h0A3.16,3.16,0,0,1,25.19,12.09Zm3.17,8.74a3.22,3.22,0,0,1,3.18,2.9q0,9.15,0,18.32a3.17,3.17,0,0,1-3.16,3.16h0a3.17,3.17,0,0,1-3.17-3.16V24A3.22,3.22,0,0,1,28.36,20.83Z"/></g></g></svg>