<?xml version="1.0" encoding="utf-8"?>
<!-- Generator: Adobe Illustrator 25.0.0, SVG Export Plug-In . SVG Version: 6.00 Build 0)  -->
<svg version="1.1" id="Layer_1" xmlns="http://www.w3.org/2000/svg" xmlns:xlink="http://www.w3.org/1999/xlink" x="0px" y="0px"
	 viewBox="0 0 56.7 56.7" style="enable-background:new 0 0 56.7 56.7;" xml:space="preserve">
<style type="text/css">
	.st0{fill:none;stroke:#000000;stroke-width:4;stroke-miterlimit:10;}
	.st1{fill:none;stroke:#000000;stroke-width:1.9133;stroke-linecap:round;stroke-linejoin:round;stroke-miterlimit:10;}
</style>
<g id="Layer_1-2">
	<path class="st0" d="M133.6-34.1c-14.6,0-26.4,11.8-26.4,26.3s11.8,26.4,26.3,26.4s26.4-11.8,26.4-26.3c0,0,0,0,0,0
		C159.9-22.3,148.1-34.1,133.6-34.1z M130.4-24c0-1.7,1.4-3.2,3.2-3.2l0,0c1.7,0,3.2,1.4,3.2,3.2c0,1.7-1.4,3.2-3.2,3.2l0,0
		C131.8-20.8,130.4-22.2,130.4-24C130.4-24,130.4-24,130.4-24z M133.6-15.3c1.6,0,3,1.3,3.2,2.9c0,6.1,0,12.2,0,18.3
		c0,1.7-1.4,3.2-3.2,3.2l0,0c-1.7,0-3.2-1.4-3.2-3.2v-18C130.4-13.8,131.8-15.2,133.6-15.3z"/>
</g>
<g>
	<path class="st1" d="M18.2,21.9c-1.1-3.8-2.8-9.6,0.4-14.8c0.5-0.8,3.7-5.9,9.3-6C33.1,1,36.4,5.5,37,6.4c3.6,5.2,2,11.5,1.1,15
		c-2.1,8.1-7.3,13.1-10,15.4C25.2,34.3,20.4,29.4,18.2,21.9z M27.9,9.1c-2.7,0-4.9,2.2-4.9,4.9s2.2,4.9,4.9,4.9s4.9-2.2,4.9-4.9
		S30.6,9.1,27.9,9.1z"/>
	<path class="st1" d="M18.8,47.2c-2.4-9.6-4.7-19.3-7.1-28.9c-3.4,1.7-6.8,3.4-10.3,5.1c0,10.5,0.1,21.1,0.1,31.6
		C7.3,52.4,13.1,49.8,18.8,47.2c6.4,2.8,12.7,5.6,19.1,8.4c5.7-2.8,11.5-5.5,17.2-8.3c0-10.6,0.1-21.2,0.1-31.9
		c-3.7,1.5-7.3,3-11,4.5c-2.1,11.9-4.2,23.8-6.4,35.7"/>
</g>
</svg>
