<svg xmlns="http://www.w3.org/2000/svg" viewBox="0 0 55.65 56.38"><defs><style>.cls-1{fill:none;stroke:#000;stroke-linecap:round;stroke-linejoin:round;stroke-width:1.91px;}</style></defs><g id="Layer_2" data-name="Layer 2"><g id="Layer_1-2" data-name="Layer 1"><path class="cls-1" d="M17.69,21.72c-1.09-3.76-2.78-9.61.36-14.78.52-.85,3.73-5.9,9.29-6,5.25-.08,8.53,4.36,9.15,5.25,3.62,5.16,2,11.48,1.1,15a29.93,29.93,0,0,1-10,15.39A31.13,31.13,0,0,1,17.69,21.72ZM27.34,8.9a4.89,4.89,0,1,0,4.88,4.88A4.88,4.88,0,0,0,27.34,8.9Z"/><path class="cls-1" d="M18.3,47,11.22,18.05,1,23.18l.12,31.63L18.3,47l19.05,8.42,17.22-8.3.12-31.87-11,4.51Q40.52,37.6,37.35,55.42"/></g></g></svg>