<svg xmlns="http://www.w3.org/2000/svg" viewBox="0 0 76.65 76.85"><defs><style>.cls-1{fill:none;stroke:#000;stroke-miterlimit:10;stroke-width:4px;}</style></defs><g id="Layer_2" data-name="Layer 2"><g id="Layer_1-2" data-name="Layer 1"><path class="cls-1" d="M74.65,36.23a.83.83,0,0,0-.82-.83H65.49a27.33,27.33,0,0,0-23.42-24,.82.82,0,0,1-.71-.8l-.11-7.72A.82.82,0,0,0,40.43,2L36.11,2a.82.82,0,0,0-.83.81l-.22,8.45h0A27.44,27.44,0,0,0,11.16,35.4H2.83a.83.83,0,0,0-.83.83v4.42a.83.83,0,0,0,.83.83h7.6a.82.82,0,0,1,.82.71A27.18,27.18,0,0,0,34.52,65.68a.83.83,0,0,1,.71.81l.05,7.37a.83.83,0,0,0,.8.82l4.43.17a.83.83,0,0,0,.86-.83v-7.7a.82.82,0,0,1,.71-.81,27.33,27.33,0,0,0,23.41-24h8.34a.83.83,0,0,0,.82-.83ZM46.32,32,41.57,49a1.21,1.21,0,0,1-2.34,0l-2.08-8.59a1.21,1.21,0,0,0-.91-.9l-8.18-1.86A1.21,1.21,0,0,1,28,35.21L44.82,30.5A1.22,1.22,0,0,1,46.32,32Z"/></g></g></svg>