<svg xmlns="http://www.w3.org/2000/svg" viewBox="0 0 63.12 66"><defs><style>.cls-1{fill:none;stroke:#000;stroke-miterlimit:10;stroke-width:4px;}</style></defs><g id="Layer_2" data-name="Layer 2"><g id="Layer_1-2" data-name="Layer 1"><path class="cls-1" d="M10.27,64H52.84a8.29,8.29,0,0,0,8.28-8.28V24.5A11.09,11.09,0,0,0,55.77,15L36.29,3.31a9.18,9.18,0,0,0-9.46,0L7.35,15A11.1,11.1,0,0,0,2,24.5V55.72A8.28,8.28,0,0,0,10.27,64Zm10.2-16.66a9,9,0,0,1,9-9H33.7a9,9,0,0,1,8.95,9v9.39H20.47Z"/></g></g></svg>